<svg width="330" height="330" viewBox="0 0 330 330" fill="none" xmlns="http://www.w3.org/2000/svg">
<rect width="330" height="330" rx="165" fill="white"/>
<path d="M59.608 163.448C54.36 163.448 50.0507 162.211 46.68 159.736C43.3093 157.219 41.496 153.635 41.24 148.984H54.616C54.744 150.563 55.2133 151.715 56.024 152.44C56.8347 153.165 57.88 153.528 59.16 153.528C60.312 153.528 61.2507 153.251 61.976 152.696C62.744 152.099 63.128 151.288 63.128 150.264C63.128 148.941 62.5093 147.917 61.272 147.192C60.0347 146.467 58.0293 145.656 55.256 144.76C52.312 143.779 49.9227 142.84 48.088 141.944C46.296 141.005 44.7173 139.661 43.352 137.912C42.0293 136.12 41.368 133.795 41.368 130.936C41.368 128.035 42.0933 125.56 43.544 123.512C44.9947 121.421 47 119.843 49.56 118.776C52.12 117.709 55.0213 117.176 58.264 117.176C63.512 117.176 67.6933 118.413 70.808 120.888C73.9653 123.32 75.6507 126.755 75.864 131.192H62.232C62.1893 129.827 61.7627 128.803 60.952 128.12C60.184 127.437 59.1813 127.096 57.944 127.096C57.0053 127.096 56.2373 127.373 55.64 127.928C55.0427 128.483 54.744 129.272 54.744 130.296C54.744 131.149 55.064 131.896 55.704 132.536C56.3867 133.133 57.2187 133.667 58.2 134.136C59.1813 134.563 60.632 135.117 62.552 135.8C65.4107 136.781 67.7573 137.763 69.592 138.744C71.4693 139.683 73.0693 141.027 74.392 142.776C75.7573 144.483 76.44 146.659 76.44 149.304C76.44 151.992 75.7573 154.403 74.392 156.536C73.0693 158.669 71.128 160.355 68.568 161.592C66.0507 162.829 63.064 163.448 59.608 163.448ZM119.008 127.096V163H106.4V157.88C105.333 159.501 103.861 160.824 101.984 161.848C100.106 162.829 97.9515 163.32 95.5195 163.32C91.3382 163.32 88.0315 161.955 85.5995 159.224C83.2102 156.451 82.0155 152.696 82.0155 147.96V127.096H94.4955V146.36C94.4955 148.408 95.0288 150.029 96.0955 151.224C97.2048 152.376 98.6555 152.952 100.448 152.952C102.282 152.952 103.733 152.376 104.8 151.224C105.866 150.029 106.4 148.408 106.4 146.36V127.096H119.008ZM138.691 132.088C139.672 130.424 141.059 129.101 142.851 128.12C144.643 127.139 146.755 126.648 149.187 126.648C152.045 126.648 154.627 127.395 156.931 128.888C159.277 130.381 161.112 132.515 162.435 135.288C163.8 138.061 164.483 141.304 164.483 145.016C164.483 148.728 163.8 151.992 162.435 154.808C161.112 157.581 159.277 159.715 156.931 161.208C154.627 162.701 152.045 163.448 149.187 163.448C146.755 163.448 144.643 162.957 142.851 161.976C141.101 160.995 139.715 159.672 138.691 158.008V180.152H126.147V127.096H138.691V132.088ZM151.747 145.016C151.747 142.669 151.107 140.856 149.827 139.576C148.589 138.253 147.053 137.592 145.219 137.592C143.384 137.592 141.827 138.253 140.547 139.576C139.309 140.899 138.691 142.712 138.691 145.016C138.691 147.363 139.309 149.197 140.547 150.52C141.827 151.843 143.384 152.504 145.219 152.504C147.053 152.504 148.589 151.843 149.827 150.52C151.107 149.155 151.747 147.32 151.747 145.016ZM203.951 144.632C203.951 145.613 203.887 146.595 203.759 147.576H180.015C180.143 149.539 180.676 151.011 181.615 151.992C182.596 152.931 183.833 153.4 185.327 153.4C187.417 153.4 188.911 152.461 189.807 150.584H203.183C202.628 153.059 201.54 155.277 199.919 157.24C198.34 159.16 196.335 160.675 193.903 161.784C191.471 162.893 188.783 163.448 185.839 163.448C182.297 163.448 179.14 162.701 176.367 161.208C173.636 159.715 171.481 157.581 169.903 154.808C168.367 152.035 167.599 148.771 167.599 145.016C167.599 141.261 168.367 138.019 169.903 135.288C171.439 132.515 173.572 130.381 176.303 128.888C179.076 127.395 182.255 126.648 185.839 126.648C189.38 126.648 192.516 127.373 195.247 128.824C197.977 130.275 200.111 132.365 201.647 135.096C203.183 137.784 203.951 140.963 203.951 144.632ZM191.151 141.496C191.151 139.96 190.639 138.765 189.615 137.912C188.591 137.016 187.311 136.568 185.775 136.568C184.239 136.568 182.98 136.995 181.999 137.848C181.017 138.659 180.377 139.875 180.079 141.496H191.151ZM221.628 133.432C223.036 131.384 224.743 129.763 226.748 128.568C228.753 127.373 230.908 126.776 233.212 126.776V140.152H229.692C226.961 140.152 224.935 140.685 223.612 141.752C222.289 142.819 221.628 144.675 221.628 147.32V163H209.084V127.096H221.628V133.432Z" fill="black"/>
<path d="M135.048 187.344C135.048 182.907 135.965 178.96 137.8 175.504C139.677 172.005 142.323 169.296 145.736 167.376C149.149 165.413 153.075 164.432 157.512 164.432C163.144 164.432 167.88 165.947 171.72 168.976C175.56 171.963 178.035 176.037 179.144 181.2H165.64C164.829 179.493 163.699 178.192 162.248 177.296C160.84 176.4 159.197 175.952 157.32 175.952C154.419 175.952 152.093 176.997 150.344 179.088C148.637 181.136 147.784 183.888 147.784 187.344C147.784 190.843 148.637 193.637 150.344 195.728C152.093 197.776 154.419 198.8 157.32 198.8C159.197 198.8 160.84 198.352 162.248 197.456C163.699 196.56 164.829 195.259 165.64 193.552H179.144C178.035 198.715 175.56 202.811 171.72 205.84C167.88 208.827 163.144 210.32 157.512 210.32C153.075 210.32 149.149 209.36 145.736 207.44C142.323 205.477 139.677 202.768 137.8 199.312C135.965 195.813 135.048 191.824 135.048 187.344ZM183.036 192.016C183.036 188.304 183.697 185.061 185.02 182.288C186.385 179.515 188.22 177.381 190.524 175.888C192.871 174.395 195.473 173.648 198.332 173.648C200.807 173.648 202.94 174.139 204.732 175.12C206.524 176.101 207.911 177.424 208.892 179.088V174.096H221.436V210H208.892V205.008C207.911 206.672 206.503 207.995 204.668 208.976C202.876 209.957 200.764 210.448 198.332 210.448C195.473 210.448 192.871 209.701 190.524 208.208C188.22 206.715 186.385 204.581 185.02 201.808C183.697 198.992 183.036 195.728 183.036 192.016ZM208.892 192.016C208.892 189.712 208.252 187.899 206.972 186.576C205.735 185.253 204.199 184.592 202.364 184.592C200.487 184.592 198.929 185.253 197.692 186.576C196.455 187.856 195.836 189.669 195.836 192.016C195.836 194.32 196.455 196.155 197.692 197.52C198.929 198.843 200.487 199.504 202.364 199.504C204.199 199.504 205.735 198.843 206.972 197.52C208.252 196.197 208.892 194.363 208.892 192.016ZM241.128 180.432C242.536 178.384 244.243 176.763 246.248 175.568C248.253 174.373 250.408 173.776 252.712 173.776V187.152H249.192C246.461 187.152 244.435 187.685 243.112 188.752C241.789 189.819 241.128 191.675 241.128 194.32V210H228.584V174.096H241.128V180.432ZM272.505 210.448C269.262 210.448 266.361 209.915 263.801 208.848C261.284 207.739 259.278 206.245 257.785 204.368C256.334 202.448 255.524 200.293 255.353 197.904H267.513C267.684 199.056 268.217 199.952 269.113 200.592C270.009 201.232 271.118 201.552 272.441 201.552C273.465 201.552 274.276 201.339 274.873 200.912C275.47 200.485 275.769 199.931 275.769 199.248C275.769 198.352 275.278 197.691 274.297 197.264C273.316 196.837 271.694 196.368 269.433 195.856C266.873 195.344 264.74 194.768 263.033 194.128C261.326 193.488 259.833 192.443 258.553 190.992C257.316 189.541 256.697 187.579 256.697 185.104C256.697 182.971 257.273 181.051 258.425 179.344C259.577 177.595 261.262 176.208 263.481 175.184C265.742 174.16 268.452 173.648 271.609 173.648C276.302 173.648 279.993 174.8 282.681 177.104C285.369 179.408 286.926 182.437 287.353 186.192H276.025C275.812 185.04 275.3 184.165 274.489 183.568C273.721 182.928 272.676 182.608 271.353 182.608C270.329 182.608 269.54 182.8 268.985 183.184C268.473 183.568 268.217 184.101 268.217 184.784C268.217 185.637 268.708 186.299 269.689 186.768C270.67 187.195 272.249 187.643 274.425 188.112C277.028 188.667 279.182 189.285 280.889 189.968C282.638 190.651 284.153 191.76 285.433 193.296C286.756 194.789 287.417 196.837 287.417 199.44C287.417 201.531 286.798 203.408 285.561 205.072C284.366 206.736 282.638 208.059 280.377 209.04C278.158 209.979 275.534 210.448 272.505 210.448Z" fill="#E00000"/>
<path d="M248.58 132.331H252.45V141.827H244.174L246.406 134.319C246.759 133.122 247.618 132.331 248.58 132.331ZM255.975 141.827V132.331H261.938C262.65 132.331 263.326 132.766 263.774 133.518L268.709 141.827H255.975ZM274.79 141.925L267.446 129.561C266.109 127.306 264.082 126 261.938 126H248.58C245.694 126 243.101 128.364 242.037 131.965L238.982 142.262C237.234 143.192 236 145.477 236 148.157V159.236C236 160.987 237.05 162.401 238.35 162.401H240.795C241.354 166.892 244.254 170.314 247.75 170.314C251.246 170.314 254.146 166.892 254.705 162.401H264.295C264.854 166.892 267.754 170.314 271.25 170.314C274.746 170.314 277.646 166.892 278.205 162.401H280.65C281.95 162.401 283 160.987 283 159.236V154.488C283 148.038 279.416 142.717 274.79 141.925ZM267.923 159.236C268.073 158.64 268.309 158.09 268.618 157.618C268.926 157.146 269.302 156.761 269.722 156.486C270.142 156.211 270.598 156.052 271.064 156.016C271.531 155.981 271.997 156.071 272.438 156.28C272.878 156.49 273.283 156.815 273.629 157.238C273.975 157.66 274.255 158.171 274.454 158.74C274.652 159.31 274.765 159.927 274.784 160.555C274.804 161.183 274.731 161.811 274.569 162.401C274.42 162.997 274.184 163.547 273.875 164.019C273.566 164.491 273.191 164.875 272.771 165.15C272.351 165.425 271.895 165.585 271.428 165.62C270.962 165.656 270.495 165.566 270.055 165.356C269.615 165.147 269.21 164.821 268.864 164.399C268.518 163.977 268.237 163.466 268.039 162.897C267.841 162.327 267.728 161.71 267.708 161.082C267.688 160.453 267.762 159.826 267.923 159.236ZM247.75 156.07C248.685 156.07 249.581 156.571 250.243 157.461C250.904 158.351 251.275 159.559 251.275 160.818C251.275 162.078 250.904 163.285 250.243 164.176C249.581 165.066 248.685 165.566 247.75 165.566C246.815 165.566 245.919 165.066 245.257 164.176C244.596 163.285 244.225 162.078 244.225 160.818C244.225 159.559 244.596 158.351 245.257 157.461C245.919 156.571 246.815 156.07 247.75 156.07Z" fill="#1C1C1C"/>
</svg>
