<svg width="64" height="34" viewBox="0 0 64 34" fill="none" xmlns="http://www.w3.org/2000/svg">
<path d="M5.152 18.112C3.84 18.112 2.76267 17.8027 1.92 17.184C1.07733 16.5547 0.624 15.6587 0.56 14.496H3.904C3.936 14.8907 4.05333 15.1787 4.256 15.36C4.45867 15.5413 4.72 15.632 5.04 15.632C5.328 15.632 5.56267 15.5627 5.744 15.424C5.936 15.2747 6.032 15.072 6.032 14.816C6.032 14.4853 5.87733 14.2293 5.568 14.048C5.25867 13.8667 4.75733 13.664 4.064 13.44C3.328 13.1947 2.73067 12.96 2.272 12.736C1.824 12.5013 1.42933 12.1653 1.088 11.728C0.757333 11.28 0.592 10.6987 0.592 9.984C0.592 9.25867 0.773333 8.64 1.136 8.128C1.49867 7.60533 2 7.21067 2.64 6.944C3.28 6.67733 4.00533 6.544 4.816 6.544C6.128 6.544 7.17333 6.85333 7.952 7.472C8.74133 8.08 9.16267 8.93867 9.216 10.048H5.808C5.79733 9.70667 5.69067 9.45067 5.488 9.28C5.296 9.10933 5.04533 9.024 4.736 9.024C4.50133 9.024 4.30933 9.09333 4.16 9.232C4.01067 9.37067 3.936 9.568 3.936 9.824C3.936 10.0373 4.016 10.224 4.176 10.384C4.34667 10.5333 4.55467 10.6667 4.8 10.784C5.04533 10.8907 5.408 11.0293 5.888 11.2C6.60267 11.4453 7.18933 11.6907 7.648 11.936C8.11733 12.1707 8.51733 12.5067 8.848 12.944C9.18933 13.3707 9.36 13.9147 9.36 14.576C9.36 15.248 9.18933 15.8507 8.848 16.384C8.51733 16.9173 8.032 17.3387 7.392 17.648C6.76267 17.9573 6.016 18.112 5.152 18.112ZM20.0019 9.024V18H16.8499V16.72C16.5832 17.1253 16.2152 17.456 15.7459 17.712C15.2765 17.9573 14.7379 18.08 14.1299 18.08C13.0845 18.08 12.2579 17.7387 11.6499 17.056C11.0525 16.3627 10.7539 15.424 10.7539 14.24V9.024H13.8739V13.84C13.8739 14.352 14.0072 14.7573 14.2739 15.056C14.5512 15.344 14.9139 15.488 15.3619 15.488C15.8205 15.488 16.1832 15.344 16.4499 15.056C16.7165 14.7573 16.8499 14.352 16.8499 13.84V9.024H20.0019ZM24.9226 10.272C25.168 9.856 25.5146 9.52533 25.9626 9.28C26.4106 9.03467 26.9386 8.912 27.5466 8.912C28.2613 8.912 28.9066 9.09867 29.4826 9.472C30.0693 9.84533 30.528 10.3787 30.8586 11.072C31.2 11.7653 31.3706 12.576 31.3706 13.504C31.3706 14.432 31.2 15.248 30.8586 15.952C30.528 16.6453 30.0693 17.1787 29.4826 17.552C28.9066 17.9253 28.2613 18.112 27.5466 18.112C26.9386 18.112 26.4106 17.9893 25.9626 17.744C25.5253 17.4987 25.1786 17.168 24.9226 16.752V22.288H21.7866V9.024H24.9226V10.272ZM28.1866 13.504C28.1866 12.9173 28.0266 12.464 27.7066 12.144C27.3973 11.8133 27.0133 11.648 26.5546 11.648C26.096 11.648 25.7066 11.8133 25.3866 12.144C25.0773 12.4747 24.9226 12.928 24.9226 13.504C24.9226 14.0907 25.0773 14.5493 25.3866 14.88C25.7066 15.2107 26.096 15.376 26.5546 15.376C27.0133 15.376 27.3973 15.2107 27.7066 14.88C28.0266 14.5387 28.1866 14.08 28.1866 13.504ZM41.2376 13.408C41.2376 13.6533 41.2216 13.8987 41.1896 14.144H35.2536C35.2856 14.6347 35.419 15.0027 35.6536 15.248C35.899 15.4827 36.2083 15.6 36.5816 15.6C37.1043 15.6 37.4776 15.3653 37.7016 14.896H41.0456C40.907 15.5147 40.635 16.0693 40.2296 16.56C39.835 17.04 39.3336 17.4187 38.7256 17.696C38.1176 17.9733 37.4456 18.112 36.7096 18.112C35.8243 18.112 35.035 17.9253 34.3416 17.552C33.659 17.1787 33.1203 16.6453 32.7256 15.952C32.3416 15.2587 32.1496 14.4427 32.1496 13.504C32.1496 12.5653 32.3416 11.7547 32.7256 11.072C33.1096 10.3787 33.643 9.84533 34.3256 9.472C35.019 9.09867 35.8136 8.912 36.7096 8.912C37.595 8.912 38.379 9.09333 39.0616 9.456C39.7443 9.81867 40.2776 10.3413 40.6616 11.024C41.0456 11.696 41.2376 12.4907 41.2376 13.408ZM38.0376 12.624C38.0376 12.24 37.9096 11.9413 37.6536 11.728C37.3976 11.504 37.0776 11.392 36.6936 11.392C36.3096 11.392 35.995 11.4987 35.7496 11.712C35.5043 11.9147 35.3443 12.2187 35.2696 12.624H38.0376ZM45.657 10.608C46.009 10.096 46.4357 9.69067 46.937 9.392C47.4383 9.09333 47.977 8.944 48.553 8.944V12.288H47.673C46.9903 12.288 46.4837 12.4213 46.153 12.688C45.8223 12.9547 45.657 13.4187 45.657 14.08V18H42.521V9.024H45.657V10.608Z" fill="#1C1C1C"/>
<path d="M24.512 22.336C24.512 21.2267 24.7413 20.24 25.2 19.376C25.6693 18.5013 26.3307 17.824 27.184 17.344C28.0373 16.8533 29.0187 16.608 30.128 16.608C31.536 16.608 32.72 16.9867 33.68 17.744C34.64 18.4907 35.2587 19.5093 35.536 20.8H32.16C31.9573 20.3733 31.6747 20.048 31.312 19.824C30.96 19.6 30.5493 19.488 30.08 19.488C29.3547 19.488 28.7733 19.7493 28.336 20.272C27.9093 20.784 27.696 21.472 27.696 22.336C27.696 23.2107 27.9093 23.9093 28.336 24.432C28.7733 24.944 29.3547 25.2 30.08 25.2C30.5493 25.2 30.96 25.088 31.312 24.864C31.6747 24.64 31.9573 24.3147 32.16 23.888H35.536C35.2587 25.1787 34.64 26.2027 33.68 26.96C32.72 27.7067 31.536 28.08 30.128 28.08C29.0187 28.08 28.0373 27.84 27.184 27.36C26.3307 26.8693 25.6693 26.192 25.2 25.328C24.7413 24.4533 24.512 23.456 24.512 22.336ZM36.509 23.504C36.509 22.576 36.6743 21.7653 37.005 21.072C37.3463 20.3787 37.805 19.8453 38.381 19.472C38.9677 19.0987 39.6183 18.912 40.333 18.912C40.9517 18.912 41.485 19.0347 41.933 19.28C42.381 19.5253 42.7277 19.856 42.973 20.272V19.024H46.109V28H42.973V26.752C42.7277 27.168 42.3757 27.4987 41.917 27.744C41.469 27.9893 40.941 28.112 40.333 28.112C39.6183 28.112 38.9677 27.9253 38.381 27.552C37.805 27.1787 37.3463 26.6453 37.005 25.952C36.6743 25.248 36.509 24.432 36.509 23.504ZM42.973 23.504C42.973 22.928 42.813 22.4747 42.493 22.144C42.1837 21.8133 41.7997 21.648 41.341 21.648C40.8717 21.648 40.4823 21.8133 40.173 22.144C39.8637 22.464 39.709 22.9173 39.709 23.504C39.709 24.08 39.8637 24.5387 40.173 24.88C40.4823 25.2107 40.8717 25.376 41.341 25.376C41.7997 25.376 42.1837 25.2107 42.493 24.88C42.813 24.5493 42.973 24.0907 42.973 23.504ZM51.032 20.608C51.384 20.096 51.8107 19.6907 52.312 19.392C52.8133 19.0933 53.352 18.944 53.928 18.944V22.288H53.048C52.3653 22.288 51.8587 22.4213 51.528 22.688C51.1973 22.9547 51.032 23.4187 51.032 24.08V28H47.896V19.024H51.032V20.608ZM58.8763 28.112C58.0656 28.112 57.3403 27.9787 56.7003 27.712C56.0709 27.4347 55.5696 27.0613 55.1963 26.592C54.8336 26.112 54.6309 25.5733 54.5883 24.976H57.6283C57.6709 25.264 57.8043 25.488 58.0283 25.648C58.2523 25.808 58.5296 25.888 58.8602 25.888C59.1163 25.888 59.3189 25.8347 59.4683 25.728C59.6176 25.6213 59.6923 25.4827 59.6923 25.312C59.6923 25.088 59.5696 24.9227 59.3243 24.816C59.0789 24.7093 58.6736 24.592 58.1083 24.464C57.4683 24.336 56.9349 24.192 56.5082 24.032C56.0816 23.872 55.7083 23.6107 55.3883 23.248C55.0789 22.8853 54.9243 22.3947 54.9243 21.776C54.9243 21.2427 55.0683 20.7627 55.3563 20.336C55.6443 19.8987 56.0656 19.552 56.6203 19.296C57.1856 19.04 57.8629 18.912 58.6523 18.912C59.8256 18.912 60.7483 19.2 61.4203 19.776C62.0923 20.352 62.4816 21.1093 62.5883 22.048H59.7563C59.7029 21.76 59.5749 21.5413 59.3723 21.392C59.1803 21.232 58.9189 21.152 58.5883 21.152C58.3323 21.152 58.1349 21.2 57.9963 21.296C57.8683 21.392 57.8043 21.5253 57.8043 21.696C57.8043 21.9093 57.9269 22.0747 58.1723 22.192C58.4176 22.2987 58.8123 22.4107 59.3563 22.528C60.0069 22.6667 60.5456 22.8213 60.9723 22.992C61.4096 23.1627 61.7883 23.44 62.1083 23.824C62.4389 24.1973 62.6042 24.7093 62.6042 25.36C62.6042 25.8827 62.4496 26.352 62.1403 26.768C61.8416 27.184 61.4096 27.5147 60.8443 27.76C60.2896 27.9947 59.6336 28.112 58.8763 28.112Z" fill="#E00000"/>
<path d="M52.9442 9.46939H53.85V11.6735H51.913L52.4355 9.93087C52.518 9.65306 52.7191 9.46939 52.9442 9.46939ZM54.675 11.6735V9.46939H56.0706C56.2373 9.46939 56.3955 9.57041 56.5003 9.7449L57.6553 11.6735H54.675ZM59.0784 11.6964L57.3597 8.82653C57.0469 8.30306 56.5725 8 56.0706 8H52.9442C52.2688 8 51.662 8.54872 51.4128 9.38444L50.6978 11.7745C50.2887 11.9903 50 12.5207 50 13.1429V15.7143C50 16.1207 50.2458 16.449 50.55 16.449H51.1223C51.253 17.4913 51.9319 18.2857 52.75 18.2857C53.5681 18.2857 54.247 17.4913 54.3777 16.449H56.6223C56.753 17.4913 57.4319 18.2857 58.25 18.2857C59.0681 18.2857 59.747 17.4913 59.8777 16.449H60.45C60.7542 16.449 61 16.1207 61 15.7143V14.6122C61 13.1153 60.1613 11.8801 59.0784 11.6964ZM57.4714 15.7143C57.5064 15.576 57.5617 15.4483 57.6339 15.3388C57.7062 15.2292 57.794 15.14 57.8923 15.0761C57.9906 15.0123 58.0974 14.9752 58.2065 14.967C58.3157 14.9588 58.4249 14.9796 58.528 15.0283C58.631 15.077 58.7258 15.1525 58.8068 15.2505C58.8878 15.3486 58.9534 15.4671 58.9998 15.5993C59.0462 15.7315 59.0725 15.8746 59.0772 16.0205C59.0818 16.1664 59.0647 16.312 59.0269 16.449C58.9919 16.5873 58.9366 16.7149 58.8644 16.8245C58.7921 16.934 58.7043 17.0233 58.606 17.0871C58.5077 17.1509 58.4009 17.188 58.2918 17.1962C58.1826 17.2045 58.0734 17.1836 57.9703 17.135C57.8673 17.0863 57.7725 17.0107 57.6915 16.9127C57.6105 16.8147 57.5449 16.6962 57.4985 16.564C57.452 16.4318 57.4257 16.2886 57.4211 16.1428C57.4165 15.9969 57.4336 15.8513 57.4714 15.7143ZM52.75 14.9796C52.9688 14.9796 53.1786 15.0957 53.3334 15.3024C53.4881 15.509 53.575 15.7894 53.575 16.0816C53.575 16.3739 53.4881 16.6542 53.3334 16.8609C53.1786 17.0676 52.9688 17.1837 52.75 17.1837C52.5312 17.1837 52.3214 17.0676 52.1666 16.8609C52.0119 16.6542 51.925 16.3739 51.925 16.0816C51.925 15.7894 52.0119 15.509 52.1666 15.3024C52.3214 15.0957 52.5312 14.9796 52.75 14.9796Z" fill="#1C1C1C"/>
</svg>
